<svg xmlns="http://www.w3.org/2000/svg" xmlns:xlink="http://www.w3.org/1999/xlink" width="500" zoomAndPan="magnify" viewBox="0 0 375 374.999991" height="500" preserveAspectRatio="xMidYMid meet" version="1.0"><defs><g/></defs><g fill="#00b4ed" fill-opacity="1"><g transform="translate(123.593932, 184.037587)"><g><path d="M 10.328125 0 L 10.328125 -79.484375 L 44.25 -79.484375 C 49.144531 -79.484375 53.285156 -78.710938 56.671875 -77.171875 C 60.066406 -75.628906 62.632812 -73.4375 64.375 -70.59375 C 66.113281 -67.75 66.984375 -64.390625 66.984375 -60.515625 C 66.984375 -56.992188 66.128906 -53.890625 64.421875 -51.203125 C 62.722656 -48.523438 60.273438 -46.375 57.078125 -44.75 L 57.078125 -43.609375 C 62.085938 -42.296875 65.953125 -39.914062 68.671875 -36.46875 C 71.390625 -33.03125 72.75 -28.8125 72.75 -23.8125 C 72.75 -16.195312 70.453125 -10.320312 65.859375 -6.1875 C 61.273438 -2.0625 54.472656 0 45.453125 0 Z M 41 -47.78125 C 48.3125 -47.78125 51.96875 -51.082031 51.96875 -57.6875 C 51.96875 -61.050781 51.0625 -63.554688 49.25 -65.203125 C 47.4375 -66.859375 44.6875 -67.6875 41 -67.6875 L 26.046875 -67.6875 L 26.046875 -47.78125 Z M 43.875 -12.453125 C 52.539062 -12.453125 56.875 -16.382812 56.875 -24.25 C 56.875 -32.144531 52.539062 -36.09375 43.875 -36.09375 L 26.046875 -36.09375 L 26.046875 -12.453125 Z M 43.875 -12.453125 "/></g></g></g><g fill="#00b4ed" fill-opacity="1"><g transform="translate(191.307548, 184.037587)"><g><path d="M 34.84375 1.140625 C 28.976562 1.140625 23.820312 -0.0625 19.375 -2.46875 C 14.9375 -4.882812 11.492188 -8.421875 9.046875 -13.078125 C 6.597656 -17.734375 5.375 -23.359375 5.375 -29.953125 C 5.375 -36.546875 6.597656 -42.179688 9.046875 -46.859375 C 11.492188 -51.535156 14.9375 -55.078125 19.375 -57.484375 C 23.820312 -59.898438 28.976562 -61.109375 34.84375 -61.109375 C 40.71875 -61.109375 45.875 -59.898438 50.3125 -57.484375 C 54.757812 -55.078125 58.210938 -51.535156 60.671875 -46.859375 C 63.140625 -42.179688 64.375 -36.546875 64.375 -29.953125 C 64.375 -23.359375 63.140625 -17.734375 60.671875 -13.078125 C 58.210938 -8.421875 54.757812 -4.882812 50.3125 -2.46875 C 45.875 -0.0625 40.71875 1.140625 34.84375 1.140625 Z M 34.84375 -11.640625 C 44.164062 -11.640625 48.828125 -17.742188 48.828125 -29.953125 C 48.828125 -36.296875 47.628906 -40.941406 45.234375 -43.890625 C 42.835938 -46.847656 39.375 -48.328125 34.84375 -48.328125 C 25.53125 -48.328125 20.875 -42.203125 20.875 -29.953125 C 20.875 -17.742188 25.53125 -11.640625 34.84375 -11.640625 Z M 34.84375 -11.640625 "/></g></g></g><g fill="#00b4ed" fill-opacity="1"><g transform="translate(250.975968, 184.037587)"><g><path d="M 34.84375 1.140625 C 28.976562 1.140625 23.820312 -0.0625 19.375 -2.46875 C 14.9375 -4.882812 11.492188 -8.421875 9.046875 -13.078125 C 6.597656 -17.734375 5.375 -23.359375 5.375 -29.953125 C 5.375 -36.546875 6.597656 -42.179688 9.046875 -46.859375 C 11.492188 -51.535156 14.9375 -55.078125 19.375 -57.484375 C 23.820312 -59.898438 28.976562 -61.109375 34.84375 -61.109375 C 40.71875 -61.109375 45.875 -59.898438 50.3125 -57.484375 C 54.757812 -55.078125 58.210938 -51.535156 60.671875 -46.859375 C 63.140625 -42.179688 64.375 -36.546875 64.375 -29.953125 C 64.375 -23.359375 63.140625 -17.734375 60.671875 -13.078125 C 58.210938 -8.421875 54.757812 -4.882812 50.3125 -2.46875 C 45.875 -0.0625 40.71875 1.140625 34.84375 1.140625 Z M 34.84375 -11.640625 C 44.164062 -11.640625 48.828125 -17.742188 48.828125 -29.953125 C 48.828125 -36.296875 47.628906 -40.941406 45.234375 -43.890625 C 42.835938 -46.847656 39.375 -48.328125 34.84375 -48.328125 C 25.53125 -48.328125 20.875 -42.203125 20.875 -29.953125 C 20.875 -17.742188 25.53125 -11.640625 34.84375 -11.640625 Z M 34.84375 -11.640625 "/></g></g></g><g fill="#002f6d" fill-opacity="1"><g transform="translate(310.648607, 184.037587)"><g/></g></g><g fill="#ff9900" fill-opacity="1"><g transform="translate(123.593932, 268.037582)"><g><path d="M 10.328125 0 L 10.328125 -79.484375 L 42.25 -79.484375 C 50.46875 -79.484375 56.671875 -77.585938 60.859375 -73.796875 C 65.046875 -70.015625 67.140625 -64.789062 67.140625 -58.125 C 67.140625 -53.300781 65.914062 -49.347656 63.46875 -46.265625 C 61.019531 -43.179688 57.367188 -40.828125 52.515625 -39.203125 L 52.515625 -38.0625 C 55.015625 -36.96875 57.035156 -35.351562 58.578125 -33.21875 C 60.117188 -31.082031 61.578125 -27.910156 62.953125 -23.703125 L 70.890625 0 L 54.75 0 L 46.96875 -23.765625 C 46.175781 -26.148438 45.28125 -28.003906 44.28125 -29.328125 C 43.28125 -30.648438 42.007812 -31.609375 40.46875 -32.203125 C 38.9375 -32.804688 36.9375 -33.109375 34.46875 -33.109375 L 26.046875 -33.109375 L 26.046875 0 Z M 40.34375 -45.5625 C 47.945312 -45.5625 51.75 -49.113281 51.75 -56.21875 C 51.75 -63.425781 47.945312 -67.03125 40.34375 -67.03125 L 26.046875 -67.03125 L 26.046875 -45.5625 Z M 40.34375 -45.5625 "/></g></g></g><g fill="#ff9900" fill-opacity="1"><g transform="translate(187.882904, 268.037582)"><g><path d="M 34.84375 1.140625 C 28.976562 1.140625 23.820312 -0.0625 19.375 -2.46875 C 14.9375 -4.882812 11.492188 -8.421875 9.046875 -13.078125 C 6.597656 -17.734375 5.375 -23.359375 5.375 -29.953125 C 5.375 -36.546875 6.597656 -42.179688 9.046875 -46.859375 C 11.492188 -51.535156 14.9375 -55.078125 19.375 -57.484375 C 23.820312 -59.898438 28.976562 -61.109375 34.84375 -61.109375 C 40.71875 -61.109375 45.875 -59.898438 50.3125 -57.484375 C 54.757812 -55.078125 58.210938 -51.535156 60.671875 -46.859375 C 63.140625 -42.179688 64.375 -36.546875 64.375 -29.953125 C 64.375 -23.359375 63.140625 -17.734375 60.671875 -13.078125 C 58.210938 -8.421875 54.757812 -4.882812 50.3125 -2.46875 C 45.875 -0.0625 40.71875 1.140625 34.84375 1.140625 Z M 34.84375 -11.640625 C 44.164062 -11.640625 48.828125 -17.742188 48.828125 -29.953125 C 48.828125 -36.296875 47.628906 -40.941406 45.234375 -43.890625 C 42.835938 -46.847656 39.375 -48.328125 34.84375 -48.328125 C 25.53125 -48.328125 20.875 -42.203125 20.875 -29.953125 C 20.875 -17.742188 25.53125 -11.640625 34.84375 -11.640625 Z M 34.84375 -11.640625 "/></g></g></g><g fill="#ff9900" fill-opacity="1"><g transform="translate(247.551325, 268.037582)"><g><path d="M 23.375 1.140625 C 19.53125 1.140625 16.195312 0.4375 13.375 -0.96875 C 10.550781 -2.382812 8.375 -4.460938 6.84375 -7.203125 C 5.320312 -9.941406 4.5625 -13.234375 4.5625 -17.078125 C 4.5625 -20.628906 5.320312 -23.609375 6.84375 -26.015625 C 8.375 -28.421875 10.734375 -30.394531 13.921875 -31.9375 C 17.109375 -33.476562 21.273438 -34.664062 26.421875 -35.5 C 30.015625 -36.082031 32.742188 -36.71875 34.609375 -37.40625 C 36.472656 -38.09375 37.726562 -38.867188 38.375 -39.734375 C 39.03125 -40.609375 39.359375 -41.71875 39.359375 -43.0625 C 39.359375 -44.976562 38.6875 -46.441406 37.34375 -47.453125 C 36.007812 -48.472656 33.78125 -48.984375 30.65625 -48.984375 C 27.320312 -48.984375 24.148438 -48.238281 21.140625 -46.75 C 18.140625 -45.269531 15.53125 -43.316406 13.3125 -40.890625 L 12.234375 -40.890625 L 5.921875 -50.390625 C 8.972656 -53.765625 12.691406 -56.394531 17.078125 -58.28125 C 21.460938 -60.164062 26.242188 -61.109375 31.421875 -61.109375 C 39.359375 -61.109375 45.101562 -59.421875 48.65625 -56.046875 C 52.207031 -52.679688 53.984375 -47.898438 53.984375 -41.703125 L 53.984375 -15.65625 C 53.984375 -12.976562 55.160156 -11.640625 57.515625 -11.640625 C 58.421875 -11.640625 59.3125 -11.800781 60.1875 -12.125 L 60.953125 -11.90625 L 62.03125 -1.40625 C 61.195312 -0.863281 60.035156 -0.421875 58.546875 -0.078125 C 57.066406 0.265625 55.4375 0.4375 53.65625 0.4375 C 50.070312 0.4375 47.273438 -0.25 45.265625 -1.625 C 43.253906 -3.007812 41.8125 -5.164062 40.9375 -8.09375 L 39.796875 -8.203125 C 36.859375 -1.972656 31.382812 1.140625 23.375 1.140625 Z M 28.15625 -10.109375 C 31.632812 -10.109375 34.414062 -11.273438 36.5 -13.609375 C 38.59375 -15.953125 39.640625 -19.207031 39.640625 -23.375 L 39.640625 -29.46875 L 38.59375 -29.6875 C 37.6875 -28.957031 36.5 -28.347656 35.03125 -27.859375 C 33.570312 -27.367188 31.460938 -26.890625 28.703125 -26.421875 C 25.441406 -25.878906 23.09375 -24.945312 21.65625 -23.625 C 20.226562 -22.300781 19.515625 -20.425781 19.515625 -18 C 19.515625 -15.425781 20.273438 -13.46875 21.796875 -12.125 C 23.316406 -10.78125 25.4375 -10.109375 28.15625 -10.109375 Z M 28.15625 -10.109375 "/></g></g></g><g fill="#ff9900" fill-opacity="1"><g transform="translate(300.750979, 268.037582)"><g><path d="M 29.625 1.140625 C 24.882812 1.140625 20.691406 -0.0078125 17.046875 -2.3125 C 13.398438 -4.613281 10.539062 -8.09375 8.46875 -12.75 C 6.40625 -17.40625 5.375 -23.140625 5.375 -29.953125 C 5.375 -36.804688 6.4375 -42.5625 8.5625 -47.21875 C 10.6875 -51.875 13.625 -55.351562 17.375 -57.65625 C 21.125 -59.957031 25.460938 -61.109375 30.390625 -61.109375 C 34.117188 -61.109375 37.351562 -60.460938 40.09375 -59.171875 C 42.832031 -57.890625 45.144531 -55.890625 47.03125 -53.171875 L 48.171875 -53.4375 L 48.171875 -84.046875 L 63.234375 -84.046875 L 63.234375 0 L 48.171875 0 L 48.171875 -7.78125 L 47.03125 -7.984375 C 45.363281 -5.160156 43.078125 -2.929688 40.171875 -1.296875 C 37.273438 0.328125 33.757812 1.140625 29.625 1.140625 Z M 34.515625 -11.640625 C 38.765625 -11.640625 42.117188 -13.148438 44.578125 -16.171875 C 47.046875 -19.203125 48.28125 -23.796875 48.28125 -29.953125 C 48.28125 -36.117188 47.046875 -40.722656 44.578125 -43.765625 C 42.117188 -46.804688 38.765625 -48.328125 34.515625 -48.328125 C 30.097656 -48.328125 26.71875 -46.847656 24.375 -43.890625 C 22.039062 -40.941406 20.875 -36.296875 20.875 -29.953125 C 20.875 -23.648438 22.039062 -19.019531 24.375 -16.0625 C 26.71875 -13.113281 30.097656 -11.640625 34.515625 -11.640625 Z M 34.515625 -11.640625 "/></g></g></g><g fill="#ff9900" fill-opacity="1"><g transform="translate(133.676377, 289.836017)"><g><path d="M 6.65625 -10.609375 L 6.65625 0 L 4.078125 0 L 4.078125 -10.609375 L 0.65625 -10.609375 L 0.65625 -12.78125 L 10.0625 -12.78125 L 10.0625 -10.609375 Z M 6.65625 -10.609375 "/></g></g></g><g fill="#ff9900" fill-opacity="1"><g transform="translate(144.685979, 289.836017)"><g><path d="M 9.796875 -9.15625 C 9.796875 -8.113281 9.570312 -7.285156 9.125 -6.671875 C 8.675781 -6.054688 8.019531 -5.632812 7.15625 -5.40625 L 10.3125 0 L 7.375 0 L 4.34375 -5.203125 L 3.65625 -5.203125 L 3.65625 0 L 1.078125 0 L 1.078125 -12.78125 L 5.421875 -12.78125 C 6.859375 -12.78125 7.945312 -12.460938 8.6875 -11.828125 C 9.425781 -11.191406 9.796875 -10.300781 9.796875 -9.15625 Z M 3.65625 -10.609375 L 3.65625 -7.375 L 5.421875 -7.375 C 6.035156 -7.375 6.488281 -7.492188 6.78125 -7.734375 C 7.070312 -7.972656 7.21875 -8.421875 7.21875 -9.078125 C 7.21875 -9.535156 7.070312 -9.90625 6.78125 -10.1875 C 6.488281 -10.46875 6.035156 -10.609375 5.421875 -10.609375 Z M 3.65625 -10.609375 "/></g></g></g><g fill="#ff9900" fill-opacity="1"><g transform="translate(155.604292, 289.836017)"><g><path d="M 8.640625 -2.765625 L 4.078125 -2.765625 L 3.09375 0 L 0.3125 0 L 4.984375 -12.78125 L 7.71875 -12.78125 L 12.40625 0 L 9.625 0 Z M 4.890625 -4.9375 L 7.796875 -4.9375 L 6.34375 -9.0625 Z M 4.890625 -4.9375 "/></g></g></g><g fill="#ff9900" fill-opacity="1"><g transform="translate(168.585735, 289.836017)"><g><path d="M 9.375 -12.78125 L 12.125 -12.78125 L 7.265625 0 L 5.171875 0 L 0.3125 -12.78125 L 3.0625 -12.78125 L 6.203125 -4.40625 Z M 9.375 -12.78125 "/></g></g></g><g fill="#ff9900" fill-opacity="1"><g transform="translate(181.293308, 289.836017)"><g><path d="M 3.65625 -5.3125 L 3.65625 -2.171875 L 9.578125 -2.171875 L 9.578125 0 L 1.078125 0 L 1.078125 -12.78125 L 9.390625 -12.78125 L 9.390625 -10.609375 L 3.65625 -10.609375 L 3.65625 -7.484375 L 9.109375 -7.484375 L 9.109375 -5.3125 Z M 3.65625 -5.3125 "/></g></g></g><g fill="#ff9900" fill-opacity="1"><g transform="translate(191.864716, 289.836017)"><g><path d="M 3.65625 -2.171875 L 8.859375 -2.171875 L 8.859375 0 L 1.078125 0 L 1.078125 -12.78125 L 3.65625 -12.78125 Z M 3.65625 -2.171875 "/></g></g></g><g fill="#ff9900" fill-opacity="1"><g transform="translate(201.705822, 289.836017)"><g/></g></g><g fill="#ff9900" fill-opacity="1"><g transform="translate(207.639755, 289.836017)"><g><path d="M 8.640625 -2.765625 L 4.078125 -2.765625 L 3.09375 0 L 0.3125 0 L 4.984375 -12.78125 L 7.71875 -12.78125 L 12.40625 0 L 9.625 0 Z M 4.890625 -4.9375 L 7.796875 -4.9375 L 6.34375 -9.0625 Z M 4.890625 -4.9375 "/></g></g></g><g fill="#ff9900" fill-opacity="1"><g transform="translate(220.621199, 289.836017)"><g><path d="M 11.921875 -7.125 L 11.921875 -5.59375 C 11.921875 -4.625 11.789062 -3.773438 11.53125 -3.046875 C 11.28125 -2.328125 10.914062 -1.726562 10.4375 -1.25 C 9.96875 -0.769531 9.40625 -0.410156 8.75 -0.171875 C 8.09375 0.0664062 7.363281 0.1875 6.5625 0.1875 C 5.78125 0.1875 5.035156 0.0820312 4.328125 -0.125 C 3.628906 -0.34375 3.019531 -0.703125 2.5 -1.203125 C 1.976562 -1.710938 1.5625 -2.390625 1.25 -3.234375 C 0.945312 -4.078125 0.796875 -5.125 0.796875 -6.375 C 0.796875 -7.625 0.945312 -8.671875 1.25 -9.515625 C 1.5625 -10.359375 1.976562 -11.035156 2.5 -11.546875 C 3.019531 -12.054688 3.628906 -12.421875 4.328125 -12.640625 C 5.035156 -12.859375 5.78125 -12.96875 6.5625 -12.96875 C 7.164062 -12.96875 7.734375 -12.898438 8.265625 -12.765625 C 8.804688 -12.628906 9.296875 -12.414062 9.734375 -12.125 C 10.179688 -11.832031 10.578125 -11.453125 10.921875 -10.984375 C 11.265625 -10.515625 11.546875 -9.945312 11.765625 -9.28125 L 9.390625 -8.53125 C 9.140625 -9.375 8.769531 -9.960938 8.28125 -10.296875 C 7.789062 -10.628906 7.21875 -10.796875 6.5625 -10.796875 C 6.132812 -10.796875 5.726562 -10.726562 5.34375 -10.59375 C 4.957031 -10.457031 4.617188 -10.222656 4.328125 -9.890625 C 4.035156 -9.554688 3.800781 -9.101562 3.625 -8.53125 C 3.457031 -7.957031 3.375 -7.238281 3.375 -6.375 C 3.375 -5.507812 3.457031 -4.789062 3.625 -4.21875 C 3.800781 -3.65625 4.035156 -3.207031 4.328125 -2.875 C 4.617188 -2.550781 4.957031 -2.320312 5.34375 -2.1875 C 5.726562 -2.050781 6.132812 -1.984375 6.5625 -1.984375 C 6.9375 -1.984375 7.285156 -2.023438 7.609375 -2.109375 C 7.929688 -2.203125 8.207031 -2.359375 8.4375 -2.578125 C 8.675781 -2.796875 8.875 -3.097656 9.03125 -3.484375 C 9.1875 -3.867188 9.28125 -4.359375 9.3125 -4.953125 L 5.875 -4.953125 L 5.875 -7.125 Z M 11.921875 -7.125 "/></g></g></g><g fill="#ff9900" fill-opacity="1"><g transform="translate(233.620897, 289.836017)"><g><path d="M 3.65625 -5.3125 L 3.65625 -2.171875 L 9.578125 -2.171875 L 9.578125 0 L 1.078125 0 L 1.078125 -12.78125 L 9.390625 -12.78125 L 9.390625 -10.609375 L 3.65625 -10.609375 L 3.65625 -7.484375 L 9.109375 -7.484375 L 9.109375 -5.3125 Z M 3.65625 -5.3125 "/></g></g></g><g fill="#ff9900" fill-opacity="1"><g transform="translate(244.192308, 289.836017)"><g><path d="M 3.421875 -12.78125 L 8.546875 -5.046875 L 8.546875 -12.78125 L 11.125 -12.78125 L 11.125 0 L 8.78125 0 L 3.65625 -7.71875 L 3.65625 0 L 1.078125 0 L 1.078125 -12.78125 Z M 3.421875 -12.78125 "/></g></g></g><g fill="#ff9900" fill-opacity="1"><g transform="translate(256.662533, 289.836017)"><g><path d="M 11.859375 -3.828125 C 11.660156 -3.097656 11.382812 -2.476562 11.03125 -1.96875 C 10.675781 -1.457031 10.257812 -1.039062 9.78125 -0.71875 C 9.3125 -0.394531 8.796875 -0.160156 8.234375 -0.015625 C 7.671875 0.117188 7.082031 0.1875 6.46875 0.1875 C 5.6875 0.1875 4.953125 0.0820312 4.265625 -0.125 C 3.578125 -0.34375 2.976562 -0.703125 2.46875 -1.203125 C 1.957031 -1.710938 1.550781 -2.390625 1.25 -3.234375 C 0.945312 -4.078125 0.796875 -5.125 0.796875 -6.375 C 0.796875 -7.625 0.945312 -8.671875 1.25 -9.515625 C 1.550781 -10.359375 1.957031 -11.035156 2.46875 -11.546875 C 2.976562 -12.054688 3.578125 -12.421875 4.265625 -12.640625 C 4.953125 -12.859375 5.6875 -12.96875 6.46875 -12.96875 C 7.0625 -12.96875 7.628906 -12.898438 8.171875 -12.765625 C 8.722656 -12.628906 9.226562 -12.414062 9.6875 -12.125 C 10.144531 -11.832031 10.550781 -11.453125 10.90625 -10.984375 C 11.257812 -10.523438 11.546875 -9.960938 11.765625 -9.296875 L 9.328125 -8.515625 C 9.222656 -8.953125 9.070312 -9.316406 8.875 -9.609375 C 8.675781 -9.898438 8.445312 -10.132812 8.1875 -10.3125 C 7.9375 -10.488281 7.660156 -10.613281 7.359375 -10.6875 C 7.066406 -10.757812 6.769531 -10.796875 6.46875 -10.796875 C 6.039062 -10.796875 5.640625 -10.726562 5.265625 -10.59375 C 4.898438 -10.457031 4.578125 -10.222656 4.296875 -9.890625 C 4.015625 -9.554688 3.789062 -9.101562 3.625 -8.53125 C 3.457031 -7.957031 3.375 -7.238281 3.375 -6.375 C 3.375 -5.507812 3.457031 -4.789062 3.625 -4.21875 C 3.789062 -3.65625 4.015625 -3.207031 4.296875 -2.875 C 4.578125 -2.550781 4.898438 -2.320312 5.265625 -2.1875 C 5.640625 -2.050781 6.039062 -1.984375 6.46875 -1.984375 C 6.78125 -1.984375 7.085938 -2.023438 7.390625 -2.109375 C 7.703125 -2.203125 7.984375 -2.347656 8.234375 -2.546875 C 8.492188 -2.742188 8.71875 -3.003906 8.90625 -3.328125 C 9.101562 -3.648438 9.257812 -4.050781 9.375 -4.53125 Z M 11.859375 -3.828125 "/></g></g></g><g fill="#ff9900" fill-opacity="1"><g transform="translate(269.406627, 289.836017)"><g><path d="M 3.21875 -12.78125 L 5.4375 -8.5625 L 7.6875 -12.78125 L 10.59375 -12.78125 L 6.734375 -5.640625 L 6.734375 0 L 4.171875 0 L 4.171875 -5.640625 L 0.3125 -12.78125 Z M 3.21875 -12.78125 "/></g></g></g><path fill="#ff9900" d="M 59.804688 132.054688 C 60.15625 131.117188 62.199219 129.242188 63.253906 129.589844 C 72.585938 132.691406 81.863281 135.816406 91.097656 138.980469 C 91.46875 139.085938 91.867188 139.003906 92.144531 138.75 C 94.320312 136.742188 110.125 120.359375 112.769531 127.03125 C 114.5625 131.539062 100.976562 142.1875 97.5625 145.144531 C 97.421875 145.289062 97.359375 145.457031 97.40625 145.652344 C 99.691406 154.941406 101.890625 164.234375 104.019531 173.539062 C 104.523438 175.753906 103.273438 176.496094 101.699219 177.601562 C 101.554688 177.699219 101.386719 177.746094 101.21875 177.746094 C 100.90625 177.746094 100.628906 177.578125 100.472656 177.316406 L 87.960938 154.246094 C 87.875 154.089844 87.765625 154.078125 87.636719 154.1875 L 72.765625 166.410156 C 72.511719 166.617188 72.414062 166.964844 72.523438 167.277344 L 75.097656 174.984375 C 75.167969 175.1875 75.109375 175.402344 74.953125 175.535156 L 72.871094 177.421875 C 72.730469 177.566406 72.523438 177.640625 72.320312 177.640625 C 72.042969 177.640625 71.789062 177.507812 71.632812 177.289062 C 69.050781 173.613281 66.683594 169.667969 63.28125 166.734375 C 61.863281 165.511719 58.085938 162.839844 57.328125 161.363281 C 57.234375 161.195312 57.234375 161.015625 57.304688 160.820312 C 58.039062 158.996094 59.359375 158.175781 61.34375 159.03125 C 63.4375 159.921875 65.480469 160.84375 67.5 161.820312 C 67.667969 161.902344 67.882812 161.878906 68.027344 161.734375 L 81.949219 147.851562 C 81.972656 147.828125 81.996094 147.789062 81.996094 147.742188 C 81.996094 147.695312 81.972656 147.644531 81.925781 147.621094 L 60.105469 132.957031 C 59.816406 132.765625 59.683594 132.402344 59.804688 132.066406 Z M 59.804688 132.054688 " fill-opacity="1" fill-rule="evenodd"/><path fill="#01b4ed" d="M 8.476562 191.03125 C 0 159.882812 23.175781 130.886719 54.757812 130.167969 C 54.9375 130.167969 55.09375 130.3125 55.09375 130.503906 L 55.117188 149.257812 C 55.117188 149.460938 55.007812 149.570312 54.804688 149.582031 C 35.269531 151.074219 22.433594 166.964844 26.664062 186.125 C 26.6875 186.234375 26.628906 186.332031 26.519531 186.378906 C 20.75 188.421875 14.859375 190.058594 8.859375 191.269531 C 8.65625 191.320312 8.523438 191.234375 8.476562 191.03125 Z M 8.476562 191.03125 " fill-opacity="1" fill-rule="evenodd"/><path fill="#ff9900" d="M 36.894531 239.222656 C 36.882812 239.308594 36.820312 239.367188 36.738281 239.367188 C 36.6875 239.367188 36.652344 239.34375 36.617188 239.320312 C 25.617188 227.058594 15.230469 212.164062 10.195312 196.332031 C 10.132812 196.128906 10.207031 196.007812 10.398438 195.960938 C 25.976562 192.316406 40.96875 186.726562 54.277344 177.757812 C 57.496094 175.59375 60.394531 172.722656 63.316406 169.980469 L 64.039062 170.703125 C 46.449219 187.21875 39.296875 216.191406 36.894531 239.222656 Z M 36.894531 239.222656 " fill-opacity="1" fill-rule="evenodd"/><path fill="#01b4ed" d="M 54.492188 258.699219 L 40.535156 244.320312 C 40.367188 244.152344 40.296875 243.949219 40.332031 243.707031 C 41.859375 232.09375 43.996094 218.894531 48.265625 207.65625 C 48.335938 207.441406 48.492188 207.355469 48.710938 207.402344 C 66.128906 210.890625 81.960938 199.757812 84.316406 182.160156 C 84.339844 181.953125 84.460938 181.847656 84.675781 181.847656 L 103.105469 181.847656 C 103.347656 181.847656 103.453125 181.953125 103.429688 182.183594 C 101.855469 197.488281 94.03125 212.355469 85.132812 224.847656 C 76.492188 236.964844 66.65625 248.253906 55.621094 258.722656 C 55.464844 258.867188 55.273438 258.9375 55.070312 258.9375 C 54.851562 258.9375 54.636719 258.855469 54.492188 258.699219 Z M 54.492188 258.699219 " fill-opacity="1" fill-rule="evenodd"/></svg>