<svg xmlns="http://www.w3.org/2000/svg" xmlns:xlink="http://www.w3.org/1999/xlink" width="500" zoomAndPan="magnify" viewBox="0 0 375 374.999991" height="500" preserveAspectRatio="xMidYMid meet" version="1.0"><defs><g/><clipPath id="856e3f2c0a"><path d="M 99 179 L 218 179 L 218 324.324219 L 99 324.324219 Z M 99 179 " clip-rule="nonzero"/></clipPath></defs><path fill="#ff9900" d="M 136.054688 86.511719 C 136.707031 84.757812 140.535156 81.246094 142.515625 81.898438 C 159.988281 87.707031 177.367188 93.558594 194.660156 99.480469 C 195.359375 99.683594 196.101562 99.527344 196.617188 99.054688 C 200.695312 95.292969 230.300781 64.605469 235.253906 77.101562 C 238.609375 85.546875 213.167969 105.492188 206.773438 111.03125 C 206.503906 111.300781 206.390625 111.617188 206.480469 111.976562 C 210.757812 129.382812 214.878906 146.785156 218.863281 164.210938 C 219.808594 168.355469 217.46875 169.75 214.519531 171.824219 C 214.246094 172.003906 213.933594 172.09375 213.617188 172.09375 C 213.03125 172.09375 212.515625 171.777344 212.222656 171.28125 L 188.78125 128.074219 C 188.625 127.785156 188.421875 127.761719 188.175781 127.964844 L 160.324219 150.859375 C 159.851562 151.242188 159.671875 151.898438 159.875 152.480469 L 164.691406 166.914062 C 164.828125 167.296875 164.714844 167.703125 164.421875 167.949219 L 160.527344 171.484375 C 160.257812 171.753906 159.875 171.890625 159.492188 171.890625 C 158.972656 171.890625 158.5 171.640625 158.207031 171.238281 C 153.367188 164.347656 148.929688 156.960938 142.558594 151.46875 C 139.902344 149.171875 132.832031 144.175781 131.414062 141.40625 C 131.234375 141.089844 131.234375 140.75 131.371094 140.390625 C 132.742188 136.96875 135.21875 135.4375 138.933594 137.035156 C 142.851562 138.703125 146.679688 140.4375 150.460938 142.261719 C 150.777344 142.417969 151.183594 142.371094 151.453125 142.101562 L 177.527344 116.097656 C 177.570312 116.054688 177.617188 115.984375 177.617188 115.894531 C 177.617188 115.804688 177.570312 115.714844 177.480469 115.671875 L 136.617188 88.203125 C 136.074219 87.839844 135.828125 87.167969 136.054688 86.535156 Z M 136.054688 86.511719 " fill-opacity="1" fill-rule="evenodd"/><path fill="#01b4ed" d="M 39.914062 196.972656 C 24.039062 138.636719 67.449219 84.328125 126.597656 82.976562 C 126.933594 82.976562 127.226562 83.25 127.226562 83.609375 L 127.273438 118.730469 C 127.273438 119.113281 127.070312 119.316406 126.6875 119.339844 C 90.101562 122.132812 66.054688 151.898438 73.980469 187.785156 C 74.023438 187.988281 73.910156 188.167969 73.710938 188.257812 C 62.902344 192.085938 51.871094 195.148438 40.632812 197.421875 C 40.25 197.511719 40.003906 197.355469 39.914062 196.972656 Z M 39.914062 196.972656 " fill-opacity="1" fill-rule="evenodd"/><path fill="#ff9900" d="M 93.140625 287.234375 C 93.117188 287.390625 93.003906 287.503906 92.847656 287.503906 C 92.757812 287.503906 92.6875 287.460938 92.621094 287.414062 C 72.019531 264.449219 52.566406 236.554688 43.132812 206.902344 C 43.019531 206.519531 43.15625 206.292969 43.515625 206.203125 C 72.695312 199.382812 100.773438 188.910156 125.695312 172.117188 C 131.730469 168.0625 137.15625 162.679688 142.628906 157.546875 L 143.976562 158.898438 C 111.039062 189.835938 97.640625 244.097656 93.140625 287.234375 Z M 93.140625 287.234375 " fill-opacity="1" fill-rule="evenodd"/><g clip-path="url(#856e3f2c0a)"><path fill="#01b4ed" d="M 126.101562 323.707031 L 99.960938 296.78125 C 99.644531 296.464844 99.511719 296.082031 99.578125 295.632812 C 102.4375 273.882812 106.445312 249.160156 114.4375 228.109375 C 114.574219 227.703125 114.867188 227.546875 115.273438 227.636719 C 147.894531 234.167969 177.546875 213.316406 181.960938 180.355469 C 182.007812 179.972656 182.230469 179.769531 182.636719 179.769531 L 217.152344 179.769531 C 217.601562 179.769531 217.804688 179.972656 217.761719 180.402344 C 214.808594 209.0625 200.152344 236.914062 183.492188 260.304688 C 167.304688 283 148.886719 304.144531 128.21875 323.753906 C 127.925781 324.023438 127.566406 324.160156 127.183594 324.160156 C 126.777344 324.160156 126.371094 324 126.101562 323.707031 Z M 126.101562 323.707031 " fill-opacity="1" fill-rule="evenodd"/></g><g fill="#00b4ed" fill-opacity="1"><g transform="translate(228.189086, 188.68872)"><g><path d="M 16.375 0 L 16.375 -125.96875 L 70.140625 -125.96875 C 77.890625 -125.96875 84.453125 -124.75 89.828125 -122.3125 C 95.203125 -119.875 99.265625 -116.398438 102.015625 -111.890625 C 104.773438 -107.378906 106.15625 -102.050781 106.15625 -95.90625 C 106.15625 -90.332031 104.804688 -85.421875 102.109375 -81.171875 C 99.410156 -76.921875 95.53125 -73.503906 90.46875 -70.921875 L 90.46875 -69.109375 C 98.394531 -67.035156 104.515625 -63.269531 108.828125 -57.8125 C 113.140625 -52.351562 115.296875 -45.660156 115.296875 -37.734375 C 115.296875 -25.671875 111.660156 -16.363281 104.390625 -9.8125 C 97.117188 -3.269531 86.332031 0 72.03125 0 Z M 64.96875 -75.734375 C 76.570312 -75.734375 82.375 -80.960938 82.375 -91.421875 C 82.375 -96.765625 80.9375 -100.742188 78.0625 -103.359375 C 75.195312 -105.972656 70.832031 -107.28125 64.96875 -107.28125 L 41.28125 -107.28125 L 41.28125 -75.734375 Z M 69.53125 -19.734375 C 83.257812 -19.734375 90.125 -25.96875 90.125 -38.4375 C 90.125 -50.957031 83.257812 -57.21875 69.53125 -57.21875 L 41.28125 -57.21875 L 41.28125 -19.734375 Z M 69.53125 -19.734375 "/></g></g></g><g fill="#ff9900" fill-opacity="1"><g transform="translate(228.189086, 321.830031)"><g><path d="M 16.375 0 L 16.375 -125.96875 L 66.953125 -125.96875 C 79.992188 -125.96875 89.832031 -122.96875 96.46875 -116.96875 C 103.101562 -110.96875 106.421875 -102.679688 106.421875 -92.109375 C 106.421875 -84.472656 104.476562 -78.210938 100.59375 -73.328125 C 96.71875 -68.441406 90.929688 -64.707031 83.234375 -62.125 L 83.234375 -60.3125 C 87.203125 -58.59375 90.40625 -56.035156 92.84375 -52.640625 C 95.28125 -49.253906 97.59375 -44.226562 99.78125 -37.5625 L 112.359375 0 L 86.765625 0 L 74.453125 -37.65625 C 73.179688 -41.445312 71.753906 -44.390625 70.171875 -46.484375 C 68.597656 -48.578125 66.585938 -50.097656 64.140625 -51.046875 C 61.703125 -51.992188 58.53125 -52.46875 54.625 -52.46875 L 41.28125 -52.46875 L 41.28125 0 Z M 63.9375 -72.203125 C 76 -72.203125 82.03125 -77.832031 82.03125 -89.09375 C 82.03125 -100.53125 76 -106.25 63.9375 -106.25 L 41.28125 -106.25 L 41.28125 -72.203125 Z M 63.9375 -72.203125 "/></g></g></g></svg>